Patient4_TMGait_0pt6_01_left_22_EMG.mot
version=1
nRows=20
nColumns=33
inDegrees=no
endheader
time	1LAddLong	2LGlutMax	3LGlutMed	4LIliopsoas	5LSemiMemb	6LBicFemLong	7LRecFem	8LVastMed	9LVastLat	10LGasMed	11LTibAnt	12lTibPost	13LPeroneusLong	14LSol	15LExtDigLong	16LFlexDigLong	17RAddLong	18RGlutMax	19RGlutMed	20RIliopsoas	21RSemiMemb	22RBicFemLong	23RRecFem	24RVastMed	25RVastLat	26RGasMed	27RTibAnt	28RTibPost	29RPeroneusLong	30RSol	31RExtDigLong	32RFlexDigLong
28.065	0.019836	0.075226	-0.029297	0.012207	0.10284	-0.001221	-0.006714	-0.001221	0.072479	-0.016479	0.022888	-0.009003	0.027161	-0.078125	-0.002899	-0.002747	-0.015106	-0.20889	0.19547	-0.076447	0.21973	0.077209	-0.31525	-0.087738	-0.007477	-0.023041	0.028229	-0.01358	-0.14038	-0.2121	-0.011597	-0.008698
28.066	0.014954	0.10346	0.013885	0.001526	0.054779	0.029144	-0.012207	-0.002747	0.059052	-0.017242	0.012512	-0.000153	0.020142	-0.22308	0.000305	0.003204	-0.039825	-0.19653	0.92834	-0.07782	0.17334	0.055389	-0.32288	0.007935	0.063934	-0.011444	0.062561	0.000763	0.046539	-0.33142	-0.017853	-0.004578
28.067	0.007629	0.12589	0.065918	0.024414	0.034485	0.040588	-0.022125	-0.00351	0.056458	-0.012817	0.008698	-0.008392	0.04425	-0.31693	0.00061	-0.004578	-0.004578	-0.16495	0.18204	0.037079	0.066376	0.068054	-0.042419	0.079346	0.030212	-0.007629	0.13077	-0.001526	0.16327	-0.20142	-0.015869	-0.010376
28.068	0.011749	0.11917	-0.000916	0.019073	0.022736	0.05249	0.01297	-0.000458	0.037079	-0.024109	0.012665	-0.007782	0.04715	-0.16953	0.006104	-0.004578	0.004272	-0.17654	-0.17136	0.10651	0.046082	0.10101	0.036774	0.13992	-0.085297	0.014648	0.1297	0.004883	0.14969	0.34195	-0.011444	0.002747
28.069	0.009766	0.15381	-0.13855	0.014191	0.019379	0.04715	-0.007324	0.004578	0.040436	0.006561	0.014648	-0.007172	0.033417	-0.032806	0.001373	0	0.032501	-0.075989	0.22339	0.10223	0.054626	0.13336	0.1239	0.092163	-0.14099	0.014343	0.027008	0.002136	-0.020294	0.49606	-0.01358	0.008392
28.07	0.009766	0.17487	-0.12482	0.009613	0.024567	0.075531	-0.005493	0.002594	0.035858	0.014954	0.010681	-0.003357	0.006561	0.022583	-0.016632	-0.006256	0.039063	-0.050812	0.33279	0.13031	0.027161	0.15533	0.13718	-0.033875	-0.16174	0.00061	-0.021667	-0.006256	-0.11444	0.51407	-0.01709	0.006561
28.071	0.006409	0.10986	-0.05249	-0.002899	0.012207	0.072174	-0.031128	0.002747	0.043945	0.01358	0.011902	-0.002441	0.016785	0.061951	-0.022583	-0.005035	0.036774	-0.21423	0.16251	0.068207	-0.037537	0.15686	0.24887	-0.14938	-0.17807	0.007477	-0.091858	-0.004883	-0.016937	0.36407	-0.018616	0.011139
28.072	0.005188	0.070343	-0.099792	0.005646	-0.001831	0.052338	-0.012665	-0.003357	0.038605	-0.009155	0.001373	-0.005798	0.060425	0.020599	-0.005341	-0.010071	-0.000153	-0.22247	0.062256	0.045624	-0.121	0.15381	0.20462	-0.14481	-0.084991	0.011139	-0.044861	-0.007935	0.11032	0.43991	-0.024109	0.005493
28.073	0.003204	0.044708	-0.046387	0.00473	0.003967	0.034332	-0.042877	-0.002899	0.050354	-0.017853	0.010223	-0.005798	0.084991	-0.083466	-0.007935	0.000916	-0.011749	-0.17166	0.24475	-0.009613	0.034027	0.10056	0.035858	-0.17792	0.13931	0.001068	-0.002594	-0.002136	0.14938	0.43945	-0.019684	0.002289
28.074	-0.002136	0.031891	-0.059509	-0.002136	0.023804	0.019073	-0.03006	0.005493	0.045776	-0.005646	-0.00061	-0.003815	0.074768	-0.087128	0.000458	-0.000153	-0.009918	-0.16739	0.18585	0.03479	0.072021	0.14038	-0.25848	-0.1593	0.15259	-0.00824	0.059357	-0.006866	0.066528	0.345	-0.016022	0.003662
28.075	0.008698	-0.022583	-0.04715	0.001984	0.035706	0.031281	-0.038605	0.00351	0.043945	-0.010529	0.004272	-0.002899	0.062408	-0.16144	0.009308	-0.003052	-0.010376	-0.18341	-0.32288	0.061798	0.009308	0.15564	-0.39002	-0.038757	0.11917	-0.017242	0.15366	-0.006866	-0.088806	0.086212	-0.018921	-0.002899
28.076	0.012054	-0.025177	-0.043182	-0.005341	0.039673	0.024872	-0.032806	0.005188	0.04303	-0.007019	-0.001221	-0.003204	0.057373	-0.19501	-0.006256	0.000458	0.013733	-0.2095	0.92178	-0.00061	0.038147	0.18585	-0.42938	-0.11566	0.14679	-0.020142	0.26611	-0.00885	-0.1088	-0.03952	-0.019989	-0.005493
28.077	0.014038	-0.061493	-0.016479	-0.013428	0.033112	0.0177	-0.020599	0.004883	0.036926	-0.031281	0.012207	-0.006866	0.041046	-0.073242	-0.007477	0.001678	0.040588	-0.18097	0.96588	-0.018768	0.036926	0.20111	-0.33585	-0.09964	0.25848	-0.011597	0.98724	-0.003357	-0.13214	0.004272	-0.016327	-0.00824
28.078	0.009155	-0.0737	-0.002136	0.007019	0.024109	0.010071	-0.033112	-0.000763	0.04425	-0.015869	0.007172	-0.011139	0.039368	-0.061493	-0.006561	0.016174	0.065613	-0.22125	0.19943	-0.034637	-0.043945	0.18387	-0.19165	-0.023499	0.17303	-0.001984	1.1647	-0.002136	-0.048065	-0.13443	-0.0177	-0.008087
28.079	0.01236	-0.052948	-0.076599	0.004883	-0.011902	-0.005035	-0.03418	-0.002747	0.049591	-0.02533	0.005798	-0.003052	0.03891	-0.046234	0.000305	-0.007324	0.033722	-0.21484	-0.1828	-0.029755	-0.13229	0.22232	-0.11414	0.033417	0.13412	0.005646	0.40283	-0.00412	0.095367	-0.21316	-0.012207	-0.010376
28.08	0.007172	-0.085602	-0.068207	-0.014191	-0.01358	-0.040894	-0.037384	-0.002441	0.045166	-0.02533	0.011597	-0.003204	0.054626	-0.083008	0.010529	0.000305	0.016937	-0.21805	-0.33478	0.011902	-0.04715	0.16907	-0.091095	0.072174	0.1503	0.001373	0.13534	-0.008392	0.076294	-0.13977	-0.021057	-0.019073
28.081	0.006561	-0.088348	-0.043945	-0.00946	0.03479	-0.035095	-0.037384	-0.000305	0.032349	-0.023804	0.012207	-0.006561	0.022583	-0.1088	0.009766	0.005188	0.00061	-0.1857	-0.50812	-0.026093	0.027924	0.1149	-0.081787	0.041046	0.10696	-0.005798	-0.69778	-0.018158	0.15091	0.088501	-0.013275	-0.013885
28.082	0.007019	-0.090942	-0.013275	0.006714	0.020294	-0.018616	-0.048523	0.002747	0.032196	-0.025024	0.017395	-0.008698	0.050354	-0.16602	0.007324	0.000305	0.002747	-0.22385	0.11246	-0.075378	0.003662	0.14969	-0.024719	0.029602	0.093842	-0.00824	-1.2886	-0.005035	0.17075	0.19836	-0.014496	-0.013885
28.083	0.00061	-0.091095	-0.071259	0.010529	0.00824	0.014954	-0.040741	0.004883	0.031738	-0.023193	0.020752	-0.005493	0.01358	-0.17578	0.004272	-0.002747	-0.015259	-0.26093	0.37003	0.001678	0.001831	0.13519	0.039978	0.032654	0.071869	-0.005035	-1.2465	0.005646	0.026245	-0.19196	-0.015411	-0.01236
28.084	0.005188	-0.10788	-0.077362	0.005798	0.007172	-0.010071	-0.041351	0.002441	0.029297	-0.015717	0.01236	-0.002289	0.028839	-0.11658	0.005188	0.020447	-0.020294	-0.20493	0.038605	0.050659	-0.041504	0.13367	0	0.055237	0.091553	0.019531	-0.68161	0.004883	-0.084076	-0.48218	-0.016174	-0.006104
